PathFileType	4	(X/Y/Z)	PS_ngait_og_ss9.trc	
DataRate	CameraRate	NumFrames	NumMarkers	Units	OrigDataRate	OrigDataStartFrame	OrigNumFrames	
120.00	120.00	5	39	mm	120.00	537	130	
Frame#	Time	Sternum			Neck			RShoulder			LShoulder			Xiphoid			Thoracic			RAsis			LAsis			RPsis			LPsis			LThighSuperior			LThighInferior			LThighLateral			LShankSuperior			LShankInferior			LShankLateral			RThighSuperior			RThighInferior			RThighLateral			RShankSuperior			RShankInferior			RShankLateral			RHeel			RToe			RMidfootMedial			RMidfootLateral			RHindfoot			RMidfootSuperior			RToeMedial			RToeLateral			LHeel			LToe			LMidfootMedial			LMidfootLateral			LHindfoot			LMidfootSuperior			LToeMedial			LToeLateral			Sacral			
		X1	Y1	Z1	X2	Y2	Z2	X3	Y3	Z3	X4	Y4	Z4	X5	Y5	Z5	X6	Y6	Z6	X7	Y7	Z7	X8	Y8	Z8	X9	Y9	Z9	X10	Y10	Z10	X11	Y11	Z11	X12	Y12	Z12	X13	Y13	Z13	X14	Y14	Z14	X15	Y15	Z15	X16	Y16	Z16	X17	Y17	Z17	X18	Y18	Z18	X19	Y19	Z19	X20	Y20	Z20	X21	Y21	Z21	X22	Y22	Z22	X23	Y23	Z23	X24	Y24	Z24	X25	Y25	Z25	X26	Y26	Z26	X27	Y27	Z27	X28	Y28	Z28	X29	Y29	Z29	X30	Y30	Z30	X31	Y31	Z31	X32	Y32	Z32	X33	Y33	Z33	X34	Y34	Z34	X35	Y35	Z35	X36	Y36	Z36	X37	Y37	Z37	X38	Y38	Z38	X39	Y39	Z39	

33	0.267	333.53302	1457.32715	138.27605	169.02730	1554.25391	128.34752	206.18535	1548.05884	292.35406	207.83496	1536.48767	-8.46117	367.65649	1298.99280	154.79797	89.85696	1336.12964	141.10089	273.26959	1030.93872	295.91571	301.39432	1031.02515	21.63116	92.83363	1056.63171	198.44606	96.90799	1047.92590	94.83550	242.25223	853.82068	-34.31460	275.57199	622.26746	5.07515	345.39502	729.97034	47.20742	278.38608	383.07593	5.20455	248.14006	184.21048	45.20172	301.52121	278.88623	75.87143	247.66599	836.27881	346.40283	309.06845	607.79327	346.86731	362.19162	770.17377	293.47687	248.87825	485.61169	355.55969	95.10612	289.92020	305.91983	219.87007	355.17239	275.42300	-37.61868	258.28021	245.21477	191.34074	42.52164	262.16110	105.33318	90.20006	205.69499	91.43752	82.82128	320.44675	54.73678	118.78355	311.17111	110.16748	157.03842	262.27142	143.79210	65.16902	212.03899	136.63609	58.70218	315.07047	161.68343	64.02909	104.77769	470.53253	63.49775	61.08825	376.69275	37.77193	124.00236	366.42322	33.24429	8.20075	312.45572	29.76815	22.01651	347.89886	98.39785	74.59576	418.47229	39.74585	115.59953	409.85324	44.19432	12.03620	94.87080	1052.27881	146.64078 
34	0.275	341.74765	1457.99976	137.78664	177.49518	1554.98474	128.37009	215.04744	1548.54871	292.29617	215.95049	1537.57104	-8.55363	375.83170	1299.35144	153.58875	98.08384	1336.94556	141.29163	282.37900	1031.89978	295.51959	308.64450	1032.07874	20.61447	101.29441	1057.68616	199.29912	104.51668	1048.58167	94.88870	248.41859	854.23041	-34.49303	279.23441	622.33008	4.95707	350.03601	729.41510	47.30037	279.24646	382.65500	6.26299	248.41031	184.56175	44.89837	302.68863	278.87247	75.96992	257.49789	837.30725	345.74451	322.40570	609.86670	345.74460	373.21927	772.84003	293.01285	264.97034	485.86279	354.88553	116.32640	286.17526	305.87534	238.96913	354.72964	274.42972	-15.87713	249.17572	245.18973	217.88242	38.95845	258.73590	133.58316	87.37840	205.13692	120.73798	79.70582	320.44672	82.58708	113.87851	311.00439	138.60072	154.77220	260.92575	169.91388	62.72385	209.54007	164.30252	55.65264	312.62753	161.65463	64.10970	104.73888	470.43167	63.47055	61.05119	376.66714	37.73296	124.02549	366.32382	32.98667	8.07867	312.47342	29.75778	22.07172	347.85529	98.41679	74.58691	418.42053	39.74138	115.61922	409.76096	44.00758	12.05160	102.90554	1053.13391	147.09392 
35	0.283	350.08328	1458.59705	137.38719	186.01207	1555.59595	128.39230	223.89790	1548.89954	292.25928	224.18655	1538.57104	-8.66663	383.97534	1299.74011	152.78679	106.29285	1337.71716	141.28812	290.85699	1032.56763	295.11115	315.90646	1032.70703	19.84152	109.39592	1058.52307	199.65698	112.09052	1049.26440	94.95044	254.37314	854.72974	-34.76885	282.74457	622.57983	4.79320	354.65942	728.77637	47.27687	282.07401	382.94766	5.32737	249.09319	184.62105	44.97626	303.71027	278.77853	76.03304	267.06598	838.30414	345.13147	335.66907	611.71979	344.58731	384.03513	775.59601	292.45142	281.04895	485.94702	354.14883	138.23326	281.72821	305.49921	258.46060	354.27179	273.32376	6.60427	239.48286	245.20335	248.80496	38.66842	257.77664	162.45509	84.35931	204.67790	150.64995	76.46096	319.99277	110.87456	109.00652	310.96082	165.85512	151.87352	260.44781	199.73120	60.81850	208.91824	195.11842	53.69484	312.05161	161.66255	64.13470	104.79298	470.55591	63.40510	61.08122	376.67709	37.71274	123.99133	366.32645	32.92319	8.06400	312.45355	29.70287	22.11430	347.86752	98.20776	74.40809	418.47842	39.70938	115.60049	409.92407	43.96678	12.02377	110.74323	1053.89380	147.30371 
36	0.292	358.42139	1459.13513	136.87576	194.47824	1556.24866	128.43002	232.78067	1549.15186	292.31360	232.36269	1539.47925	-8.67502	392.20822	1299.88000	151.80186	114.49304	1338.39075	141.40375	299.19885	1032.81897	294.40268	323.10455	1033.14233	19.14919	117.37112	1059.20789	199.76683	119.62875	1049.96545	95.11391	260.15619	854.93579	-35.23889	286.48389	622.39258	4.74261	359.44177	728.24530	47.31320	284.29614	382.94180	5.29519	249.72231	184.73679	44.78122	304.92419	278.11240	75.89104	276.49335	839.07947	344.53159	348.61807	613.56897	343.25201	394.67944	778.05865	291.69577	297.27734	485.77441	353.30115	160.49786	276.95282	304.98575	277.93710	353.61533	272.01465	29.29936	229.71033	245.23463	280.60684	39.56599	257.32001	191.91331	81.26710	204.42929	181.17407	73.12801	319.80389	139.98193	103.82150	310.71951	192.69960	148.96388	260.08099	230.36407	59.35943	208.63852	226.55876	52.34198	311.81210	161.61168	64.18326	104.71882	470.62509	63.32465	61.09555	377.06967	38.18200	124.10950	366.31757	32.94779	8.03258	312.42596	29.74012	22.08417	347.87744	98.35887	74.56606	418.59515	39.96649	115.80554	409.84369	43.86704	12.23123	118.49993	1054.58667	147.44037 
37	0.300	366.80038	1459.57361	136.39835	203.03358	1556.65601	128.51442	241.71361	1549.23145	292.38934	240.53883	1540.26514	-8.61108	400.39987	1300.24841	150.99568	122.68844	1338.95288	141.63943	307.13480	1032.60071	293.80807	329.75977	1032.81775	18.90184	125.01949	1059.94214	200.00885	126.66755	1050.52087	95.68063	265.72806	855.11163	-35.83482	290.04483	622.40564	4.60155	364.09668	727.55768	47.15047	286.08075	383.00171	5.10339	250.24475	184.73973	44.85298	305.94992	277.86731	75.80358	287.04663	841.44098	344.05392	361.34232	615.48553	342.04071	405.11255	780.49133	290.81421	313.51630	485.26944	352.34332	183.10629	271.92374	304.52670	297.36932	352.71982	270.60324	53.15396	219.25941	245.47214	311.92850	40.78230	256.39975	221.75352	78.16896	204.05046	211.77785	70.06783	319.62341	169.48399	98.52360	310.59195	219.35634	146.26222	259.15454	260.65186	58.17450	207.87944	257.62289	51.41440	311.09592	161.65417	64.27931	104.71434	470.65756	63.24561	61.06461	379.16077	40.11917	125.53204	366.30850	32.92963	7.99024	312.44562	29.69354	22.07022	347.80048	98.22420	74.36278	419.51282	41.20756	117.13994	408.83475	43.37548	13.69565	125.84352	1055.23157	147.84474 
